<svg width="83" height="25" viewBox="0 0 83 25" fill="none" xmlns="http://www.w3.org/2000/svg">
<g filter="url(#filter0_d_3_40)">
<mask id="path-1-outside-1_3_40" maskUnits="userSpaceOnUse" x="1.51758" y="-1.16406" width="79" height="21" fill="black">
<rect fill="white" x="1.51758" y="-1.16406" width="79" height="21"/>
<path d="M3.392 17.8359L11.3032 0.255545H14.5179L22.4542 17.8359H19.0386L12.2324 1.98847H13.5384L6.75739 17.8359H3.392ZM7.03366 13.7673L7.91268 11.2056H17.4061L18.2851 13.7673H7.03366ZM24.69 17.8359V0.255545H27.3773L35.0624 13.0892H33.656L41.2155 0.255545H43.9028L43.928 17.8359H40.8388L40.8137 5.10271H41.4667L35.0373 15.8267H33.5806L27.0508 5.10271H27.8042V17.8359H24.69ZM56.8138 18.0871C55.4744 18.0871 54.227 17.8694 53.0717 17.4341C51.9332 16.982 50.937 16.3542 50.0831 15.5505C49.2459 14.7301 48.5929 13.7673 48.1241 12.6623C47.6553 11.5572 47.4209 10.3517 47.4209 9.04574C47.4209 7.73977 47.6553 6.53426 48.1241 5.4292C48.5929 4.32415 49.2543 3.36979 50.1082 2.56611C50.9621 1.74569 51.9583 1.11782 53.0968 0.682497C54.2354 0.23043 55.4827 0.0043964 56.8389 0.0043964C58.2789 0.0043964 59.5932 0.255545 60.782 0.757843C61.9707 1.2434 62.9753 1.97173 63.7958 2.94283L61.6861 4.92691C61.0499 4.24043 60.3383 3.72977 59.5514 3.3949C58.7644 3.04329 57.9105 2.86749 56.9896 2.86749C56.0688 2.86749 55.2232 3.01818 54.453 3.31956C53.6996 3.62093 53.0382 4.04789 52.469 4.60041C51.9164 5.15294 51.4811 5.80593 51.163 6.55937C50.8616 7.31282 50.7109 8.14161 50.7109 9.04574C50.7109 9.94988 50.8616 10.7787 51.163 11.5321C51.4811 12.2856 51.9164 12.9385 52.469 13.4911C53.0382 14.0436 53.6996 14.4705 54.453 14.7719C55.2232 15.0733 56.0688 15.224 56.9896 15.224C57.9105 15.224 58.7644 15.0566 59.5514 14.7217C60.3383 14.3701 61.0499 13.8427 61.6861 13.1395L63.7958 15.1486C62.9753 16.103 61.9707 16.8313 60.782 17.3336C59.5932 17.8359 58.2705 18.0871 56.8138 18.0871ZM72.3495 18.0871C70.9766 18.0871 69.6622 17.8945 68.4065 17.5094C67.1507 17.1076 66.1545 16.5969 65.4178 15.9774L66.548 13.4408C67.2512 13.9934 68.1219 14.4538 69.1599 14.8222C70.198 15.1905 71.2612 15.3747 72.3495 15.3747C73.2704 15.3747 74.0155 15.2742 74.5847 15.0733C75.154 14.8724 75.5726 14.6045 75.8405 14.2696C76.1084 13.918 76.2423 13.5246 76.2423 13.0892C76.2423 12.5534 76.0498 12.1265 75.6647 11.8084C75.2796 11.4735 74.7773 11.214 74.1578 11.0298C73.555 10.8289 72.8769 10.6447 72.1235 10.4773C71.3868 10.3099 70.6417 10.1173 69.8883 9.89965C69.1516 9.66524 68.4735 9.37223 67.854 9.02063C67.2512 8.65228 66.7573 8.16672 66.3722 7.56397C65.9871 6.96121 65.7945 6.19102 65.7945 5.2534C65.7945 4.29904 66.0457 3.42839 66.548 2.64146C67.067 1.83778 67.8456 1.20154 68.8837 0.732727C69.9385 0.247173 71.2696 0.0043964 72.8769 0.0043964C73.9318 0.0043964 74.9782 0.138343 76.0163 0.406235C77.0544 0.674126 77.9585 1.05922 78.7287 1.56152L77.699 4.09812C76.9121 3.62931 76.1 3.28607 75.2628 3.06841C74.4257 2.834 73.622 2.7168 72.8518 2.7168C71.9477 2.7168 71.211 2.82563 70.6417 3.04329C70.0892 3.26095 69.679 3.54559 69.4111 3.8972C69.1599 4.24881 69.0344 4.65064 69.0344 5.10271C69.0344 5.63849 69.2185 6.07382 69.5869 6.40868C69.972 6.7268 70.4659 6.97795 71.0687 7.16213C71.6882 7.3463 72.3746 7.53048 73.1281 7.71465C73.8815 7.88209 74.6266 8.07463 75.3633 8.2923C76.1167 8.50996 76.7948 8.79459 77.3976 9.1462C78.0171 9.49781 78.511 9.97499 78.8794 10.5777C79.2645 11.1805 79.457 11.9423 79.457 12.8632C79.457 13.8008 79.1975 14.6715 78.6785 15.4751C78.1762 16.2621 77.3976 16.8983 76.3428 17.3839C75.288 17.8527 73.9569 18.0871 72.3495 18.0871Z"/>
</mask>
<path d="M3.392 17.8359L11.3032 0.255545H14.5179L22.4542 17.8359H19.0386L12.2324 1.98847H13.5384L6.75739 17.8359H3.392ZM7.03366 13.7673L7.91268 11.2056H17.4061L18.2851 13.7673H7.03366ZM24.69 17.8359V0.255545H27.3773L35.0624 13.0892H33.656L41.2155 0.255545H43.9028L43.928 17.8359H40.8388L40.8137 5.10271H41.4667L35.0373 15.8267H33.5806L27.0508 5.10271H27.8042V17.8359H24.69ZM56.8138 18.0871C55.4744 18.0871 54.227 17.8694 53.0717 17.4341C51.9332 16.982 50.937 16.3542 50.0831 15.5505C49.2459 14.7301 48.5929 13.7673 48.1241 12.6623C47.6553 11.5572 47.4209 10.3517 47.4209 9.04574C47.4209 7.73977 47.6553 6.53426 48.1241 5.4292C48.5929 4.32415 49.2543 3.36979 50.1082 2.56611C50.9621 1.74569 51.9583 1.11782 53.0968 0.682497C54.2354 0.23043 55.4827 0.0043964 56.8389 0.0043964C58.2789 0.0043964 59.5932 0.255545 60.782 0.757843C61.9707 1.2434 62.9753 1.97173 63.7958 2.94283L61.6861 4.92691C61.0499 4.24043 60.3383 3.72977 59.5514 3.3949C58.7644 3.04329 57.9105 2.86749 56.9896 2.86749C56.0688 2.86749 55.2232 3.01818 54.453 3.31956C53.6996 3.62093 53.0382 4.04789 52.469 4.60041C51.9164 5.15294 51.4811 5.80593 51.163 6.55937C50.8616 7.31282 50.7109 8.14161 50.7109 9.04574C50.7109 9.94988 50.8616 10.7787 51.163 11.5321C51.4811 12.2856 51.9164 12.9385 52.469 13.4911C53.0382 14.0436 53.6996 14.4705 54.453 14.7719C55.2232 15.0733 56.0688 15.224 56.9896 15.224C57.9105 15.224 58.7644 15.0566 59.5514 14.7217C60.3383 14.3701 61.0499 13.8427 61.6861 13.1395L63.7958 15.1486C62.9753 16.103 61.9707 16.8313 60.782 17.3336C59.5932 17.8359 58.2705 18.0871 56.8138 18.0871ZM72.3495 18.0871C70.9766 18.0871 69.6622 17.8945 68.4065 17.5094C67.1507 17.1076 66.1545 16.5969 65.4178 15.9774L66.548 13.4408C67.2512 13.9934 68.1219 14.4538 69.1599 14.8222C70.198 15.1905 71.2612 15.3747 72.3495 15.3747C73.2704 15.3747 74.0155 15.2742 74.5847 15.0733C75.154 14.8724 75.5726 14.6045 75.8405 14.2696C76.1084 13.918 76.2423 13.5246 76.2423 13.0892C76.2423 12.5534 76.0498 12.1265 75.6647 11.8084C75.2796 11.4735 74.7773 11.214 74.1578 11.0298C73.555 10.8289 72.8769 10.6447 72.1235 10.4773C71.3868 10.3099 70.6417 10.1173 69.8883 9.89965C69.1516 9.66524 68.4735 9.37223 67.854 9.02063C67.2512 8.65228 66.7573 8.16672 66.3722 7.56397C65.9871 6.96121 65.7945 6.19102 65.7945 5.2534C65.7945 4.29904 66.0457 3.42839 66.548 2.64146C67.067 1.83778 67.8456 1.20154 68.8837 0.732727C69.9385 0.247173 71.2696 0.0043964 72.8769 0.0043964C73.9318 0.0043964 74.9782 0.138343 76.0163 0.406235C77.0544 0.674126 77.9585 1.05922 78.7287 1.56152L77.699 4.09812C76.9121 3.62931 76.1 3.28607 75.2628 3.06841C74.4257 2.834 73.622 2.7168 72.8518 2.7168C71.9477 2.7168 71.211 2.82563 70.6417 3.04329C70.0892 3.26095 69.679 3.54559 69.4111 3.8972C69.1599 4.24881 69.0344 4.65064 69.0344 5.10271C69.0344 5.63849 69.2185 6.07382 69.5869 6.40868C69.972 6.7268 70.4659 6.97795 71.0687 7.16213C71.6882 7.3463 72.3746 7.53048 73.1281 7.71465C73.8815 7.88209 74.6266 8.07463 75.3633 8.2923C76.1167 8.50996 76.7948 8.79459 77.3976 9.1462C78.0171 9.49781 78.511 9.97499 78.8794 10.5777C79.2645 11.1805 79.457 11.9423 79.457 12.8632C79.457 13.8008 79.1975 14.6715 78.6785 15.4751C78.1762 16.2621 77.3976 16.8983 76.3428 17.3839C75.288 17.8527 73.9569 18.0871 72.3495 18.0871Z" fill="white"/>
<path d="M3.392 17.8359L2.67629 17.5139L2.17818 18.6208H3.392V17.8359ZM11.3032 0.255545V-0.529294H10.7957L10.5875 -0.0665255L11.3032 0.255545ZM14.5179 0.255545L15.2332 -0.0673752L15.0247 -0.529294H14.5179V0.255545ZM22.4542 17.8359V18.6208H23.6696L23.1695 17.513L22.4542 17.8359ZM19.0386 17.8359L18.3174 18.1457L18.5215 18.6208H19.0386V17.8359ZM12.2324 1.98847V1.20363H11.0412L11.5113 2.29818L12.2324 1.98847ZM13.5384 1.98847L14.26 2.29722L14.7279 1.20363H13.5384V1.98847ZM6.75739 17.8359V18.6208H7.27524L7.47895 18.1447L6.75739 17.8359ZM7.03366 13.7673L6.29131 13.5126L5.93459 14.5522H7.03366V13.7673ZM7.91268 11.2056V10.4208H7.35223L7.17033 10.9509L7.91268 11.2056ZM17.4061 11.2056L18.1484 10.9509L17.9665 10.4208H17.4061V11.2056ZM18.2851 13.7673V14.5522H19.3842L19.0275 13.5126L18.2851 13.7673ZM4.10772 18.158L12.0189 0.577615L10.5875 -0.0665255L2.67629 17.5139L4.10772 18.158ZM11.3032 1.04038H14.5179V-0.529294H11.3032V1.04038ZM13.8026 0.578464L21.7388 18.1589L23.1695 17.513L15.2332 -0.0673752L13.8026 0.578464ZM22.4542 17.0511H19.0386V18.6208H22.4542V17.0511ZM19.7597 17.5262L12.9536 1.67875L11.5113 2.29818L18.3174 18.1457L19.7597 17.5262ZM12.2324 2.77331H13.5384V1.20363H12.2324V2.77331ZM12.8168 1.67972L6.03584 17.5272L7.47895 18.1447L14.26 2.29722L12.8168 1.67972ZM6.75739 17.0511H3.392V18.6208H6.75739V17.0511ZM7.77601 14.0221L8.65503 11.4603L7.17033 10.9509L6.29131 13.5126L7.77601 14.0221ZM7.91268 11.9905H17.4061V10.4208H7.91268V11.9905ZM16.6637 11.4603L17.5428 14.0221L19.0275 13.5126L18.1484 10.9509L16.6637 11.4603ZM18.2851 12.9825H7.03366V14.5522H18.2851V12.9825ZM24.69 17.8359H23.9051V18.6208H24.69V17.8359ZM24.69 0.255545V-0.529294H23.9051V0.255545H24.69ZM27.3773 0.255545L28.0506 -0.14767L27.8221 -0.529294H27.3773V0.255545ZM35.0624 13.0892V13.8741H36.4472L35.7358 12.686L35.0624 13.0892ZM33.656 13.0892L32.9797 12.6909L32.2828 13.8741H33.656V13.0892ZM41.2155 0.255545V-0.529294H40.767L40.5393 -0.142789L41.2155 0.255545ZM43.9028 0.255545L44.6877 0.254423L44.6866 -0.529294H43.9028V0.255545ZM43.928 17.8359V18.6208H44.7139L44.7128 17.8348L43.928 17.8359ZM40.8388 17.8359L40.054 17.8375L40.0555 18.6208H40.8388V17.8359ZM40.8137 5.10271V4.31787H40.0273L40.0289 5.10426L40.8137 5.10271ZM41.4667 5.10271L42.1398 5.50627L42.8523 4.31787H41.4667V5.10271ZM35.0373 15.8267V16.6116H35.4818L35.7104 16.2303L35.0373 15.8267ZM33.5806 15.8267L32.9103 16.2349L33.1396 16.6116H33.5806V15.8267ZM27.0508 5.10271V4.31787H25.654L26.3804 5.51088L27.0508 5.10271ZM27.8042 5.10271H28.5891V4.31787H27.8042V5.10271ZM27.8042 17.8359V18.6208H28.5891V17.8359H27.8042ZM25.4748 17.8359V0.255545H23.9051V17.8359H25.4748ZM24.69 1.04038H27.3773V-0.529294H24.69V1.04038ZM26.7039 0.658759L34.3891 13.4924L35.7358 12.686L28.0506 -0.14767L26.7039 0.658759ZM35.0624 12.3044H33.656V13.8741H35.0624V12.3044ZM34.3322 13.4876L41.8918 0.653878L40.5393 -0.142789L32.9797 12.6909L34.3322 13.4876ZM41.2155 1.04038H43.9028V-0.529294H41.2155V1.04038ZM43.118 0.256666L43.1431 17.8371L44.7128 17.8348L44.6877 0.254423L43.118 0.256666ZM43.928 17.0511H40.8388V18.6208H43.928V17.0511ZM41.6237 17.8344L41.5985 5.10116L40.0289 5.10426L40.054 17.8375L41.6237 17.8344ZM40.8137 5.88755H41.4667V4.31787H40.8137V5.88755ZM40.7936 4.69915L34.3642 15.4232L35.7104 16.2303L42.1398 5.50627L40.7936 4.69915ZM35.0373 15.0419H33.5806V16.6116H35.0373V15.0419ZM34.251 15.4186L27.7211 4.69454L26.3804 5.51088L32.9103 16.2349L34.251 15.4186ZM27.0508 5.88755H27.8042V4.31787H27.0508V5.88755ZM27.0194 5.10271V17.8359H28.5891V5.10271H27.0194ZM27.8042 17.0511H24.69V18.6208H27.8042V17.0511ZM53.0717 17.4341L52.782 18.1637L52.795 18.1685L53.0717 17.4341ZM50.0831 15.5505L49.5337 16.111L49.5394 16.1166L49.5452 16.122L50.0831 15.5505ZM48.1241 12.6623L48.8466 12.3558L48.1241 12.6623ZM48.1241 5.4292L48.8466 5.73572L48.1241 5.4292ZM50.1082 2.56611L50.6461 3.13766L50.6519 3.13206L50.1082 2.56611ZM53.0968 0.682498L53.3772 1.41564L53.3865 1.41194L53.0968 0.682498ZM60.782 0.757843L60.4765 1.48085L60.4852 1.48441L60.782 0.757843ZM63.7958 2.94283L64.3335 3.51455L64.8755 3.00476L64.3953 2.43634L63.7958 2.94283ZM61.6861 4.92691L61.1105 5.46041L61.6479 6.04025L62.2238 5.49863L61.6861 4.92691ZM59.5513 3.3949L59.2311 4.11158L59.244 4.11707L59.5513 3.3949ZM54.453 3.31956L54.167 2.58866L54.1616 2.59085L54.453 3.31956ZM52.469 4.60041L51.9223 4.03717L51.914 4.04545L52.469 4.60041ZM51.163 6.55937L50.44 6.25409L50.4371 6.26096L50.4343 6.26789L51.163 6.55937ZM51.163 11.5321L50.4343 11.8236L50.4371 11.8305L50.44 11.8374L51.163 11.5321ZM52.469 13.4911L51.9139 14.0461L51.9223 14.0543L52.469 13.4911ZM54.453 14.7719L54.1615 15.5007L54.167 15.5028L54.453 14.7719ZM59.5513 14.7217L59.8587 15.444L59.8715 15.4383L59.5513 14.7217ZM61.6861 13.1395L62.2274 12.5711L61.6443 12.0158L61.1041 12.6129L61.6861 13.1395ZM63.7958 15.1486L64.3909 15.6603L64.8771 15.0947L64.337 14.5803L63.7958 15.1486ZM60.782 17.3336L61.0875 18.0566V18.0566L60.782 17.3336ZM56.8138 17.3022C55.5608 17.3022 54.4081 17.0989 53.3485 16.6997L52.795 18.1685C54.046 18.6399 55.3879 18.8719 56.8138 18.8719V17.3022ZM53.3614 16.7047C52.3106 16.2875 51.3996 15.7118 50.621 14.979L49.5452 16.122C50.4743 16.9965 51.5557 17.6766 52.7821 18.1635L53.3614 16.7047ZM50.6324 14.9899C49.8709 14.2437 49.276 13.3679 48.8466 12.3558L47.4016 12.9688C47.9098 14.1668 48.6209 15.2164 49.5337 16.111L50.6324 14.9899ZM48.8466 12.3558C48.4224 11.3559 48.2057 10.2557 48.2057 9.04574H46.636C46.636 10.4477 46.8881 11.7585 47.4016 12.9688L48.8466 12.3558ZM48.2057 9.04574C48.2057 7.83575 48.4224 6.73558 48.8466 5.73572L47.4016 5.12268C46.8881 6.33294 46.636 7.64379 46.636 9.04574H48.2057ZM48.8466 5.73572C49.2739 4.72841 49.8733 3.86493 50.6461 3.13763L49.5703 1.99459C48.6352 2.87464 47.9119 3.91989 47.4016 5.12268L48.8466 5.73572ZM50.6519 3.13206C51.4278 2.38658 52.3338 1.81451 53.3771 1.41558L52.8165 -0.0505826C51.5828 0.421131 50.4963 1.10481 49.5644 2.00016L50.6519 3.13206ZM53.3865 1.41194C54.4234 1.0002 55.5713 0.789235 56.8389 0.789235V-0.780442C55.3942 -0.780442 54.0473 -0.539336 52.8072 -0.0469446L53.3865 1.41194ZM56.8389 0.789235C58.1861 0.789235 59.395 1.02382 60.4765 1.48079L61.0875 0.0348911C59.7914 -0.51273 58.3716 -0.780442 56.8389 -0.780442V0.789235ZM60.4852 1.48441C61.558 1.9226 62.4584 2.57594 63.1962 3.44933L64.3953 2.43634C63.4923 1.36752 62.3835 0.564191 61.0787 0.0312743L60.4852 1.48441ZM63.2581 2.37111L61.1484 4.35519L62.2238 5.49863L64.3335 3.51455L63.2581 2.37111ZM62.2617 4.3934C61.5575 3.63357 60.7566 3.05483 59.8587 2.67273L59.244 4.11707C59.92 4.4047 60.5422 4.84729 61.1105 5.46041L62.2617 4.3934ZM59.8715 2.67834C58.9771 2.27869 58.0132 2.08265 56.9896 2.08265V3.65233C57.8078 3.65233 58.5518 3.8079 59.2312 4.11146L59.8715 2.67834ZM56.9896 2.08265C55.982 2.08265 55.0381 2.24782 54.167 2.58868L54.739 4.05043C55.4083 3.78854 56.1555 3.65233 56.9896 3.65233V2.08265ZM54.1616 2.59085C53.3153 2.92935 52.5668 3.41177 51.9223 4.03723L53.0156 5.1636C53.5097 4.684 54.0839 4.31252 54.7445 4.04826L54.1616 2.59085ZM51.914 4.04545C51.2865 4.6729 50.7956 5.41178 50.44 6.25409L51.886 6.86465C52.1666 6.20007 52.5463 5.63298 53.0239 5.15538L51.914 4.04545ZM50.4343 6.26789C50.0918 7.12405 49.9261 8.05314 49.9261 9.04574H51.4958C51.4958 8.23007 51.6314 7.50158 51.8917 6.85085L50.4343 6.26789ZM49.9261 9.04574C49.9261 10.0383 50.0918 10.9674 50.4343 11.8236L51.8917 11.2406C51.6314 10.5899 51.4958 9.86141 51.4958 9.04574H49.9261ZM50.44 11.8374C50.7956 12.6797 51.2865 13.4186 51.914 14.046L53.0239 12.9361C52.5463 12.4585 52.1666 11.8914 51.886 11.2268L50.44 11.8374ZM51.9223 14.0543C52.5668 14.6797 53.3153 15.1621 54.1616 15.5006L54.7445 14.0432C54.0839 13.779 53.5097 13.4075 53.0156 12.9279L51.9223 14.0543ZM54.167 15.5028C55.0381 15.8437 55.982 16.0088 56.9896 16.0088V14.4392C56.1555 14.4392 55.4083 14.3029 54.739 14.041L54.167 15.5028ZM56.9896 16.0088C58.0079 16.0088 58.9673 15.8232 59.8587 15.4439L59.244 13.9995C58.5616 14.2899 57.8131 14.4392 56.9896 14.4392V16.0088ZM59.8715 15.4383C60.7676 15.0379 61.5661 14.4419 62.2681 13.666L61.1041 12.6129C60.5336 13.2435 59.909 13.7023 59.2312 14.0051L59.8715 15.4383ZM61.1448 13.7078L63.2545 15.717L64.337 14.5803L62.2274 12.5711L61.1448 13.7078ZM63.2006 14.637C62.4612 15.4971 61.5566 16.1543 60.4765 16.6107L61.0875 18.0566C62.3849 17.5084 63.4895 16.7089 64.3909 15.6603L63.2006 14.637ZM60.4765 16.6107C59.3961 17.0672 58.179 17.3022 56.8138 17.3022V18.8719C58.362 18.8719 59.7903 18.6047 61.0875 18.0566L60.4765 16.6107ZM68.4065 17.5094L68.1673 18.257L68.1764 18.2598L68.4065 17.5094ZM65.4178 15.9774L64.7009 15.658L64.4604 16.1978L64.9127 16.5781L65.4178 15.9774ZM66.548 13.4408L67.0329 12.8237L66.241 12.2015L65.8311 13.1214L66.548 13.4408ZM69.1599 14.8222L69.4224 14.0825L69.1599 14.8222ZM74.5847 15.0733L74.3235 14.3332L74.5847 15.0733ZM75.8405 14.2696L76.4533 14.7599L76.4591 14.7527L76.4648 14.7453L75.8405 14.2696ZM75.6647 11.8084L75.1497 12.4006L75.1572 12.4071L75.1648 12.4135L75.6647 11.8084ZM74.1578 11.0298L73.9096 11.7744L73.9218 11.7784L73.9341 11.7821L74.1578 11.0298ZM72.1235 10.4773L71.9495 11.2426L71.9532 11.2434L72.1235 10.4773ZM69.8883 9.89965L69.6503 10.6475L69.6603 10.6507L69.6704 10.6537L69.8883 9.89965ZM67.854 9.02063L67.4447 9.69032L67.4555 9.69693L67.4666 9.70319L67.854 9.02063ZM66.3722 7.56397L65.7108 7.98651L66.3722 7.56397ZM66.548 2.64146L65.8887 2.21565L65.8864 2.21918L66.548 2.64146ZM68.8837 0.732727L69.2067 1.44802L69.2118 1.44566L68.8837 0.732727ZM76.0163 0.406235L75.8202 1.16618V1.16618L76.0163 0.406235ZM78.7287 1.56152L79.4559 1.85672L79.6992 1.25744L79.1574 0.904129L78.7287 1.56152ZM77.699 4.09812L77.2973 4.77237L78.0824 5.24012L78.4262 4.39332L77.699 4.09812ZM75.2628 3.06841L75.0512 3.82418L75.0583 3.82615L75.0654 3.82799L75.2628 3.06841ZM70.6417 3.04329L70.3614 2.31017L70.354 2.31307L70.6417 3.04329ZM69.4111 3.8972L68.7868 3.42155L68.7795 3.43118L68.7724 3.44102L69.4111 3.8972ZM69.5869 6.40868L69.0589 6.98942L69.0727 7.00192L69.087 7.01376L69.5869 6.40868ZM71.0687 7.16213L70.8393 7.91273L70.845 7.91442L71.0687 7.16213ZM73.1281 7.71465L72.9417 8.47705L72.9498 8.47901L72.9578 8.4808L73.1281 7.71465ZM75.3633 8.2923L75.1409 9.04498L75.1455 9.0463L75.3633 8.2923ZM77.3976 9.1462L77.0021 9.82418L77.0102 9.82876L77.3976 9.1462ZM78.8794 10.5777L78.2097 10.987L78.2138 10.9937L78.218 11.0003L78.8794 10.5777ZM78.6785 15.4751L78.0192 15.0493L78.0169 15.0529L78.6785 15.4751ZM76.3428 17.3839L76.6616 18.1011L76.671 18.0968L76.3428 17.3839ZM72.3495 17.3022C71.051 17.3022 69.8145 17.1203 68.6366 16.7591L68.1764 18.2598C69.51 18.6688 70.9021 18.8719 72.3495 18.8719V17.3022ZM68.6457 16.7619C67.4536 16.3805 66.5583 15.911 65.9229 15.3768L64.9127 16.5781C65.7508 17.2829 66.8479 17.8347 68.1673 18.2569L68.6457 16.7619ZM66.1347 16.2969L67.2649 13.7603L65.8311 13.1214L64.7009 15.658L66.1347 16.2969ZM66.0631 14.058C66.8468 14.6737 67.797 15.1713 68.8975 15.5618L69.4224 14.0825C68.4467 13.7363 67.6556 13.313 67.0329 12.8237L66.0631 14.058ZM68.8975 15.5618C70.0188 15.9597 71.1707 16.1595 72.3495 16.1595V14.5898C71.3517 14.5898 70.3772 14.4213 69.4224 14.0825L68.8975 15.5618ZM72.3495 16.1595C73.3176 16.1595 74.1608 16.0552 74.846 15.8134L74.3235 14.3332C73.8701 14.4932 73.2232 14.5898 72.3495 14.5898V16.1595ZM74.846 15.8134C75.4997 15.5827 76.0638 15.2469 76.4533 14.7599L75.2276 13.7793C75.0814 13.9621 74.8084 14.1621 74.3235 14.3332L74.846 15.8134ZM76.4648 14.7453C76.8351 14.2592 77.0272 13.6992 77.0272 13.0892H75.4575C75.4575 13.3499 75.3817 13.5768 75.2162 13.794L76.4648 14.7453ZM77.0272 13.0892C77.0272 12.3388 76.7446 11.6825 76.1645 11.2033L75.1648 12.4135C75.355 12.5705 75.4575 12.7681 75.4575 13.0892H77.0272ZM76.1797 11.2161C75.6906 10.7909 75.0807 10.4854 74.3814 10.2775L73.9341 11.7821C74.4739 11.9426 74.8685 12.1561 75.1497 12.4006L76.1797 11.2161ZM74.406 10.2852C73.7729 10.0742 73.0682 9.88323 72.2937 9.71114L71.9532 11.2434C72.6857 11.4062 73.3372 11.5836 73.9096 11.7744L74.406 10.2852ZM72.2974 9.71197C71.576 9.54801 70.8456 9.35927 70.1061 9.14564L69.6704 10.6537C70.4379 10.8753 71.1976 11.0717 71.9495 11.2426L72.2974 9.71197ZM70.1262 9.15175C69.4371 8.93248 68.8096 8.66059 68.2414 8.33806L67.4666 9.70319C68.1373 10.0839 68.866 10.398 69.6503 10.6475L70.1262 9.15175ZM68.2632 8.35094C67.7635 8.04555 67.3553 7.64502 67.0336 7.14142L65.7108 7.98651C66.1592 8.68842 66.7389 9.259 67.4447 9.69032L68.2632 8.35094ZM67.0336 7.14142C66.7506 6.6985 66.5794 6.08697 66.5794 5.2534H65.0097C65.0097 6.29507 65.2236 7.22392 65.7108 7.98651L67.0336 7.14142ZM66.5794 5.2534C66.5794 4.44514 66.7896 3.72159 67.2095 3.06373L65.8864 2.21918C65.3018 3.13518 65.0097 4.15293 65.0097 5.2534H66.5794ZM67.2073 3.06725C67.6299 2.41287 68.2796 1.86668 69.2067 1.44801L68.5606 0.0174475C67.4116 0.536391 66.5042 1.26269 65.8887 2.21566L67.2073 3.06725ZM69.2118 1.44566C70.1322 1.02201 71.342 0.789235 72.8769 0.789235V-0.780442C71.1971 -0.780442 69.7448 -0.527668 68.5555 0.0197937L69.2118 1.44566ZM72.8769 0.789235C73.8645 0.789235 74.8451 0.914543 75.8202 1.16618L76.2124 -0.353707C75.1113 -0.637858 73.999 -0.780442 72.8769 -0.780442V0.789235ZM75.8202 1.16618C76.7891 1.41621 77.612 1.77021 78.3 2.21891L79.1574 0.904129C78.305 0.348228 77.3197 -0.0679598 76.2124 -0.353707L75.8202 1.16618ZM78.0015 1.26632L76.9718 3.80291L78.4262 4.39332L79.4559 1.85672L78.0015 1.26632ZM78.1007 3.42386C77.2538 2.91934 76.3734 2.54621 75.4603 2.30882L75.0654 3.82799C75.8266 4.02593 76.5703 4.33927 77.2973 4.77237L78.1007 3.42386ZM75.4745 2.31264C74.5771 2.06138 73.702 1.93196 72.8518 1.93196V3.50164C73.542 3.50164 74.2742 3.60662 75.0512 3.82418L75.4745 2.31264ZM72.8518 1.93196C71.8938 1.93196 71.0524 2.04601 70.3614 2.31021L70.922 3.77637C71.3696 3.60525 72.0015 3.50164 72.8518 3.50164V1.93196ZM70.354 2.31307C69.7125 2.56579 69.1665 2.9232 68.7868 3.42155L70.0354 4.37284C70.1915 4.16798 70.4658 3.95612 70.9294 3.77351L70.354 2.31307ZM68.7724 3.44102C68.4216 3.93214 68.2495 4.49511 68.2495 5.10271H69.8192C69.8192 4.80618 69.8982 4.56547 70.0497 4.35338L68.7724 3.44102ZM68.2495 5.10271C68.2495 5.84068 68.5135 6.49353 69.0589 6.98942L70.1148 5.82795C69.9236 5.65411 69.8192 5.4363 69.8192 5.10271H68.2495ZM69.087 7.01376C69.5697 7.41251 70.1626 7.70594 70.8393 7.91271L71.298 6.41155C70.7692 6.24996 70.3742 6.0411 70.0867 5.8036L69.087 7.01376ZM70.845 7.91442C71.479 8.10291 72.1781 8.29039 72.9417 8.47705L73.3144 6.95226C72.5711 6.77056 71.8973 6.5897 71.2923 6.40983L70.845 7.91442ZM72.9578 8.4808C73.6938 8.64436 74.4215 8.83242 75.1409 9.04497L75.5857 7.53962C74.8317 7.31685 74.0692 7.11981 73.2983 6.9485L72.9578 8.4808ZM75.1455 9.0463C75.8443 9.2482 76.4616 9.50883 77.0021 9.82413L77.7931 8.46827C77.1281 8.08035 76.3891 7.77172 75.5811 7.53829L75.1455 9.0463ZM77.0102 9.82876C77.515 10.1153 77.9113 10.4988 78.2097 10.987L79.5491 10.1685C79.1107 9.45118 78.5192 8.88036 77.785 8.46364L77.0102 9.82876ZM78.218 11.0003C78.5023 11.4453 78.6722 12.0495 78.6722 12.8632H80.2419C80.2419 11.8351 80.0267 10.9157 79.5408 10.1552L78.218 11.0003ZM78.6722 12.8632C78.6722 13.6465 78.458 14.3698 78.0192 15.0493L79.3378 15.9009C79.937 14.9731 80.2419 13.9551 80.2419 12.8632H78.6722ZM78.0169 15.0529C77.6133 15.6852 76.966 16.233 76.0146 16.6709L76.671 18.0968C77.8292 17.5637 78.7391 16.8389 79.34 15.8974L78.0169 15.0529ZM76.024 16.6667C75.1008 17.077 73.8873 17.3022 72.3495 17.3022V18.8719C74.0264 18.8719 75.4751 18.6284 76.6615 18.1011L76.024 16.6667Z" fill="black" mask="url(#path-1-outside-1_3_40)"/>
</g>
<defs>
<filter id="filter0_d_3_40" x="0.252612" y="0.0078125" width="82.3438" height="24.3568" filterUnits="userSpaceOnUse" color-interpolation-filters="sRGB">
<feFlood flood-opacity="0" result="BackgroundImageFix"/>
<feColorMatrix in="SourceAlpha" type="matrix" values="0 0 0 0 0 0 0 0 0 0 0 0 0 0 0 0 0 0 127 0" result="hardAlpha"/>
<feOffset dy="3.13936"/>
<feGaussianBlur stdDeviation="1.56968"/>
<feComposite in2="hardAlpha" operator="out"/>
<feColorMatrix type="matrix" values="0 0 0 0 0 0 0 0 0 0 0 0 0 0 0 0 0 0 0.25 0"/>
<feBlend mode="normal" in2="BackgroundImageFix" result="effect1_dropShadow_3_40"/>
<feBlend mode="normal" in="SourceGraphic" in2="effect1_dropShadow_3_40" result="shape"/>
</filter>
</defs>
</svg>
