<svg width="127" height="25" viewBox="0 0 127 25" fill="none" xmlns="http://www.w3.org/2000/svg">
<g filter="url(#filter0_d_7_228)">
<mask id="path-1-outside-1_7_228" maskUnits="userSpaceOnUse" x="2.95483" y="-0.601562" width="122" height="21" fill="black">
<rect fill="white" x="2.95483" y="-0.601562" width="122" height="21"/>
<path d="M13.4528 18.6496C12.1134 18.6496 10.866 18.4319 9.71073 17.9966C8.57219 17.5445 7.57597 16.9167 6.72206 16.113C5.8849 15.2926 5.23191 14.3298 4.7631 13.2248C4.29429 12.1197 4.05989 10.9142 4.05989 9.60824C4.05989 8.30227 4.29429 7.09676 4.7631 5.9917C5.23191 4.88665 5.89327 3.93229 6.74718 3.12861C7.60108 2.30819 8.5973 1.68032 9.73584 1.245C10.8744 0.79293 12.1218 0.566896 13.478 0.566896C14.9179 0.566896 16.2322 0.818045 17.421 1.32034C18.6098 1.8059 19.6143 2.53423 20.4348 3.50533L18.3251 5.48941C17.6889 4.80293 16.9773 4.29227 16.1904 3.9574C15.4034 3.60579 14.5495 3.42999 13.6286 3.42999C12.7078 3.42999 11.8622 3.58068 11.092 3.88206C10.3386 4.18343 9.67724 4.61039 9.10797 5.16291C8.55544 5.71544 8.12012 6.36843 7.802 7.12187C7.50062 7.87532 7.34993 8.70411 7.34993 9.60824C7.34993 10.5124 7.50062 11.3412 7.802 12.0946C8.12012 12.8481 8.55544 13.501 9.10797 14.0536C9.67724 14.6061 10.3386 15.033 11.092 15.3344C11.8622 15.6358 12.7078 15.7865 13.6286 15.7865C14.5495 15.7865 15.4034 15.6191 16.1904 15.2842C16.9773 14.9326 17.6889 14.4052 18.3251 13.702L20.4348 15.7111C19.6143 16.6655 18.6098 17.3938 17.421 17.8961C16.2322 18.3984 14.9095 18.6496 13.4528 18.6496ZM31.4329 18.6496C30.06 18.6496 28.7959 18.4236 27.6406 17.9715C26.4853 17.5194 25.4807 16.8915 24.6268 16.0879C23.7729 15.2675 23.1115 14.3131 22.6427 13.2248C22.1739 12.1197 21.9395 10.9142 21.9395 9.60824C21.9395 8.30227 22.1739 7.10513 22.6427 6.01682C23.1115 4.91177 23.7729 3.9574 24.6268 3.15373C25.4807 2.33331 26.4853 1.69706 27.6406 1.245C28.7959 0.79293 30.0516 0.566896 31.4078 0.566896C32.7807 0.566896 34.0365 0.79293 35.175 1.245C36.3303 1.69706 37.3349 2.33331 38.1888 3.15373C39.0427 3.9574 39.7041 4.91177 40.1729 6.01682C40.6417 7.10513 40.8761 8.30227 40.8761 9.60824C40.8761 10.9142 40.6417 12.1197 40.1729 13.2248C39.7041 14.3298 39.0427 15.2842 38.1888 16.0879C37.3349 16.8915 36.3303 17.5194 35.175 17.9715C34.0365 18.4236 32.7891 18.6496 31.4329 18.6496ZM31.4078 15.7865C32.2952 15.7865 33.1156 15.6358 33.8691 15.3344C34.6225 15.033 35.2755 14.6061 35.828 14.0536C36.3805 13.4843 36.8075 12.8313 37.1089 12.0946C37.427 11.3412 37.586 10.5124 37.586 9.60824C37.586 8.70411 37.427 7.88369 37.1089 7.14699C36.8075 6.39354 36.3805 5.74055 35.828 5.18803C35.2755 4.61876 34.6225 4.18343 33.8691 3.88206C33.1156 3.58068 32.2952 3.42999 31.4078 3.42999C30.5204 3.42999 29.7 3.58068 28.9465 3.88206C28.2098 4.18343 27.5569 4.61876 26.9876 5.18803C26.4351 5.74055 25.9997 6.39354 25.6816 7.14699C25.3802 7.88369 25.2295 8.70411 25.2295 9.60824C25.2295 10.4956 25.3802 11.3161 25.6816 12.0695C25.9997 12.8229 26.4351 13.4843 26.9876 14.0536C27.5401 14.6061 28.1931 15.033 28.9465 15.3344C29.7 15.6358 30.5204 15.7865 31.4078 15.7865ZM44.3368 18.3984V0.818045H47.6018V15.6358H56.7938V18.3984H44.3368ZM59.3714 18.3984V0.818045H62.6363V15.6358H71.8284V18.3984H59.3714ZM77.4198 8.12647H86.1597V10.8138H77.4198V8.12647ZM77.6709 15.6609H87.5913V18.3984H74.406V0.818045H87.2397V3.55556H77.6709V15.6609ZM99.4435 18.6496C98.0706 18.6496 96.8065 18.4319 95.6512 17.9966C94.5126 17.5445 93.5164 16.9167 92.6625 16.113C91.8086 15.2926 91.1472 14.3298 90.6784 13.2248C90.2096 12.1197 89.9752 10.9142 89.9752 9.60824C89.9752 8.30227 90.2096 7.09676 90.6784 5.9917C91.1472 4.88665 91.8086 3.93229 92.6625 3.12861C93.5332 2.30819 94.5461 1.68032 95.7014 1.245C96.8567 0.79293 98.1208 0.566896 99.4938 0.566896C100.984 0.566896 102.323 0.809673 103.512 1.29523C104.718 1.78078 105.731 2.49237 106.551 3.42999L104.492 5.43918C103.805 4.7527 103.06 4.25041 102.256 3.93229C101.469 3.59742 100.599 3.42999 99.6444 3.42999C98.7236 3.42999 97.8697 3.58068 97.0827 3.88206C96.2958 4.18343 95.6177 4.61039 95.0484 5.16291C94.4792 5.71544 94.0355 6.36843 93.7173 7.12187C93.416 7.87532 93.2653 8.70411 93.2653 9.60824C93.2653 10.4956 93.416 11.3161 93.7173 12.0695C94.0355 12.8229 94.4792 13.4843 95.0484 14.0536C95.6177 14.6061 96.2874 15.033 97.0576 15.3344C97.8278 15.6358 98.6817 15.7865 99.6193 15.7865C100.49 15.7865 101.327 15.6525 102.131 15.3847C102.951 15.1 103.73 14.6312 104.466 13.9782L106.325 16.4144C105.404 17.1511 104.333 17.712 103.11 18.0971C101.905 18.4654 100.683 18.6496 99.4435 18.6496ZM103.236 15.9874V9.40732H106.325V16.4144L103.236 15.9874ZM113.645 8.12647H122.385V10.8138H113.645V8.12647ZM113.896 15.6609H123.816V18.3984H110.631V0.818045H123.465V3.55556H113.896V15.6609Z"/>
</mask>
<path d="M13.4528 18.6496C12.1134 18.6496 10.866 18.4319 9.71073 17.9966C8.57219 17.5445 7.57597 16.9167 6.72206 16.113C5.8849 15.2926 5.23191 14.3298 4.7631 13.2248C4.29429 12.1197 4.05989 10.9142 4.05989 9.60824C4.05989 8.30227 4.29429 7.09676 4.7631 5.9917C5.23191 4.88665 5.89327 3.93229 6.74718 3.12861C7.60108 2.30819 8.5973 1.68032 9.73584 1.245C10.8744 0.79293 12.1218 0.566896 13.478 0.566896C14.9179 0.566896 16.2322 0.818045 17.421 1.32034C18.6098 1.8059 19.6143 2.53423 20.4348 3.50533L18.3251 5.48941C17.6889 4.80293 16.9773 4.29227 16.1904 3.9574C15.4034 3.60579 14.5495 3.42999 13.6286 3.42999C12.7078 3.42999 11.8622 3.58068 11.092 3.88206C10.3386 4.18343 9.67724 4.61039 9.10797 5.16291C8.55544 5.71544 8.12012 6.36843 7.802 7.12187C7.50062 7.87532 7.34993 8.70411 7.34993 9.60824C7.34993 10.5124 7.50062 11.3412 7.802 12.0946C8.12012 12.8481 8.55544 13.501 9.10797 14.0536C9.67724 14.6061 10.3386 15.033 11.092 15.3344C11.8622 15.6358 12.7078 15.7865 13.6286 15.7865C14.5495 15.7865 15.4034 15.6191 16.1904 15.2842C16.9773 14.9326 17.6889 14.4052 18.3251 13.702L20.4348 15.7111C19.6143 16.6655 18.6098 17.3938 17.421 17.8961C16.2322 18.3984 14.9095 18.6496 13.4528 18.6496ZM31.4329 18.6496C30.06 18.6496 28.7959 18.4236 27.6406 17.9715C26.4853 17.5194 25.4807 16.8915 24.6268 16.0879C23.7729 15.2675 23.1115 14.3131 22.6427 13.2248C22.1739 12.1197 21.9395 10.9142 21.9395 9.60824C21.9395 8.30227 22.1739 7.10513 22.6427 6.01682C23.1115 4.91177 23.7729 3.9574 24.6268 3.15373C25.4807 2.33331 26.4853 1.69706 27.6406 1.245C28.7959 0.79293 30.0516 0.566896 31.4078 0.566896C32.7807 0.566896 34.0365 0.79293 35.175 1.245C36.3303 1.69706 37.3349 2.33331 38.1888 3.15373C39.0427 3.9574 39.7041 4.91177 40.1729 6.01682C40.6417 7.10513 40.8761 8.30227 40.8761 9.60824C40.8761 10.9142 40.6417 12.1197 40.1729 13.2248C39.7041 14.3298 39.0427 15.2842 38.1888 16.0879C37.3349 16.8915 36.3303 17.5194 35.175 17.9715C34.0365 18.4236 32.7891 18.6496 31.4329 18.6496ZM31.4078 15.7865C32.2952 15.7865 33.1156 15.6358 33.8691 15.3344C34.6225 15.033 35.2755 14.6061 35.828 14.0536C36.3805 13.4843 36.8075 12.8313 37.1089 12.0946C37.427 11.3412 37.586 10.5124 37.586 9.60824C37.586 8.70411 37.427 7.88369 37.1089 7.14699C36.8075 6.39354 36.3805 5.74055 35.828 5.18803C35.2755 4.61876 34.6225 4.18343 33.8691 3.88206C33.1156 3.58068 32.2952 3.42999 31.4078 3.42999C30.5204 3.42999 29.7 3.58068 28.9465 3.88206C28.2098 4.18343 27.5569 4.61876 26.9876 5.18803C26.4351 5.74055 25.9997 6.39354 25.6816 7.14699C25.3802 7.88369 25.2295 8.70411 25.2295 9.60824C25.2295 10.4956 25.3802 11.3161 25.6816 12.0695C25.9997 12.8229 26.4351 13.4843 26.9876 14.0536C27.5401 14.6061 28.1931 15.033 28.9465 15.3344C29.7 15.6358 30.5204 15.7865 31.4078 15.7865ZM44.3368 18.3984V0.818045H47.6018V15.6358H56.7938V18.3984H44.3368ZM59.3714 18.3984V0.818045H62.6363V15.6358H71.8284V18.3984H59.3714ZM77.4198 8.12647H86.1597V10.8138H77.4198V8.12647ZM77.6709 15.6609H87.5913V18.3984H74.406V0.818045H87.2397V3.55556H77.6709V15.6609ZM99.4435 18.6496C98.0706 18.6496 96.8065 18.4319 95.6512 17.9966C94.5126 17.5445 93.5164 16.9167 92.6625 16.113C91.8086 15.2926 91.1472 14.3298 90.6784 13.2248C90.2096 12.1197 89.9752 10.9142 89.9752 9.60824C89.9752 8.30227 90.2096 7.09676 90.6784 5.9917C91.1472 4.88665 91.8086 3.93229 92.6625 3.12861C93.5332 2.30819 94.5461 1.68032 95.7014 1.245C96.8567 0.79293 98.1208 0.566896 99.4938 0.566896C100.984 0.566896 102.323 0.809673 103.512 1.29523C104.718 1.78078 105.731 2.49237 106.551 3.42999L104.492 5.43918C103.805 4.7527 103.06 4.25041 102.256 3.93229C101.469 3.59742 100.599 3.42999 99.6444 3.42999C98.7236 3.42999 97.8697 3.58068 97.0827 3.88206C96.2958 4.18343 95.6177 4.61039 95.0484 5.16291C94.4792 5.71544 94.0355 6.36843 93.7173 7.12187C93.416 7.87532 93.2653 8.70411 93.2653 9.60824C93.2653 10.4956 93.416 11.3161 93.7173 12.0695C94.0355 12.8229 94.4792 13.4843 95.0484 14.0536C95.6177 14.6061 96.2874 15.033 97.0576 15.3344C97.8278 15.6358 98.6817 15.7865 99.6193 15.7865C100.49 15.7865 101.327 15.6525 102.131 15.3847C102.951 15.1 103.73 14.6312 104.466 13.9782L106.325 16.4144C105.404 17.1511 104.333 17.712 103.11 18.0971C101.905 18.4654 100.683 18.6496 99.4435 18.6496ZM103.236 15.9874V9.40732H106.325V16.4144L103.236 15.9874ZM113.645 8.12647H122.385V10.8138H113.645V8.12647ZM113.896 15.6609H123.816V18.3984H110.631V0.818045H123.465V3.55556H113.896V15.6609Z" fill="white"/>
<path d="M9.71073 17.9966L9.42105 18.7262L9.43399 18.731L9.71073 17.9966ZM6.72206 16.113L6.17273 16.6735L6.17839 16.6791L6.18416 16.6845L6.72206 16.113ZM4.7631 13.2248L5.48561 12.9183L4.7631 13.2248ZM4.7631 5.9917L5.48561 6.29822L4.7631 5.9917ZM6.74718 3.12861L7.28511 3.70016L7.29093 3.69456L6.74718 3.12861ZM9.73584 1.245L10.0162 1.97814L10.0255 1.97444L9.73584 1.245ZM17.421 1.32034L17.1155 2.04335L17.1242 2.04691L17.421 1.32034ZM20.4348 3.50533L20.9725 4.07705L21.5145 3.56726L21.0343 2.99884L20.4348 3.50533ZM18.3251 5.48941L17.7495 6.02291L18.2869 6.60275L18.8628 6.06113L18.3251 5.48941ZM16.1904 3.9574L15.8701 4.67408L15.883 4.67957L16.1904 3.9574ZM11.092 3.88206L10.806 3.15116L10.8006 3.15335L11.092 3.88206ZM9.10797 5.16291L8.56129 4.59967L8.55301 4.60795L9.10797 5.16291ZM7.802 7.12187L7.07897 6.81659L7.07607 6.82346L7.07329 6.83039L7.802 7.12187ZM7.802 12.0946L7.07329 12.3861L7.07607 12.393L7.07897 12.3999L7.802 12.0946ZM9.10797 14.0536L8.55294 14.6086L8.56135 14.6168L9.10797 14.0536ZM11.092 15.3344L10.8006 16.0632L10.806 16.0653L11.092 15.3344ZM16.1904 15.2842L16.4977 16.0065L16.5105 16.0008L16.1904 15.2842ZM18.3251 13.702L18.8664 13.1336L18.2833 12.5783L17.7431 13.1754L18.3251 13.702ZM20.4348 15.7111L21.0299 16.2228L21.5161 15.6572L20.976 15.1428L20.4348 15.7111ZM17.421 17.8961L17.7265 18.6191L17.7265 18.6191L17.421 17.8961ZM13.4528 17.8647C12.1999 17.8647 11.0471 17.6614 9.98747 17.2622L9.43399 18.731C10.685 19.2024 12.0269 19.4344 13.4528 19.4344V17.8647ZM10.0004 17.2672C8.94962 16.85 8.03861 16.2743 7.25996 15.5415L6.18416 16.6845C7.11332 17.559 8.19476 18.2391 9.4211 18.726L10.0004 17.2672ZM7.27139 15.5524C6.50994 14.8062 5.915 13.9304 5.48561 12.9183L4.04059 13.5313C4.54882 14.7293 5.25986 15.7789 6.17273 16.6735L7.27139 15.5524ZM5.48561 12.9183C5.06143 11.9184 4.84473 10.8182 4.84473 9.60824H3.27505C3.27505 11.0102 3.52715 12.321 4.04059 13.5313L5.48561 12.9183ZM4.84473 9.60824C4.84473 8.39825 5.06143 7.29808 5.48561 6.29822L4.04059 5.68518C3.52715 6.89544 3.27505 8.20629 3.27505 9.60824H4.84473ZM5.48561 6.29822C5.91296 5.29091 6.51232 4.42743 7.28508 3.70013L6.20927 2.55709C5.27422 3.43714 4.55087 4.48239 4.04059 5.68518L5.48561 6.29822ZM7.29093 3.69456C8.06684 2.94908 8.97277 2.37701 10.0161 1.97808L9.45555 0.511917C8.22183 0.983631 7.13532 1.66731 6.20342 2.56266L7.29093 3.69456ZM10.0255 1.97444C11.0625 1.5627 12.2103 1.35174 13.478 1.35174V-0.217942C12.0332 -0.217942 10.6863 0.0231636 9.44621 0.515555L10.0255 1.97444ZM13.478 1.35174C14.8251 1.35174 16.034 1.58632 17.1155 2.04329L17.7265 0.597391C16.4304 0.0497704 15.0107 -0.217942 13.478 -0.217942V1.35174ZM17.1242 2.04691C18.197 2.4851 19.0974 3.13844 19.8352 4.01183L21.0343 2.99884C20.1313 1.93002 19.0225 1.12669 17.7178 0.593774L17.1242 2.04691ZM19.8971 2.93361L17.7874 4.91769L18.8628 6.06113L20.9725 4.07705L19.8971 2.93361ZM18.9007 4.9559C18.1965 4.19607 17.3956 3.61733 16.4977 3.23523L15.883 4.67957C16.559 4.9672 17.1812 5.40979 17.7495 6.02291L18.9007 4.9559ZM16.5105 3.24084C15.6161 2.84119 14.6522 2.64515 13.6286 2.64515V4.21483C14.4469 4.21483 15.1908 4.3704 15.8702 4.67396L16.5105 3.24084ZM13.6286 2.64515C12.621 2.64515 11.6771 2.81032 10.806 3.15118L11.378 4.61293C12.0473 4.35104 12.7946 4.21483 13.6286 4.21483V2.64515ZM10.8006 3.15335C9.95432 3.49185 9.20576 3.97427 8.56135 4.59973L9.65459 5.7261C10.1487 5.2465 10.7229 4.87502 11.3835 4.61076L10.8006 3.15335ZM8.55301 4.60795C7.92555 5.2354 7.43461 5.97428 7.07897 6.81659L8.52503 7.42715C8.80563 6.76257 9.18534 6.19548 9.66294 5.71788L8.55301 4.60795ZM7.07329 6.83039C6.73083 7.68655 6.56509 8.61564 6.56509 9.60824H8.13477C8.13477 8.79257 8.27041 8.06408 8.5307 7.41335L7.07329 6.83039ZM6.56509 9.60824C6.56509 10.6008 6.73083 11.5299 7.07329 12.3861L8.5307 11.8031C8.27041 11.1524 8.13477 10.4239 8.13477 9.60824H6.56509ZM7.07897 12.3999C7.43461 13.2422 7.92555 13.9811 8.55301 14.6085L9.66294 13.4986C9.18534 13.021 8.80563 12.4539 8.52503 11.7893L7.07897 12.3999ZM8.56135 14.6168C9.20576 15.2422 9.95432 15.7246 10.8006 16.0631L11.3835 14.6057C10.7229 14.3415 10.1487 13.97 9.65459 13.4904L8.56135 14.6168ZM10.806 16.0653C11.6771 16.4062 12.621 16.5713 13.6286 16.5713V15.0017C12.7946 15.0017 12.0473 14.8654 11.378 14.6035L10.806 16.0653ZM13.6286 16.5713C14.6469 16.5713 15.6063 16.3857 16.4977 16.0064L15.883 14.562C15.2006 14.8524 14.4521 15.0017 13.6286 15.0017V16.5713ZM16.5105 16.0008C17.4066 15.6004 18.2051 15.0044 18.9071 14.2285L17.7431 13.1754C17.1726 13.806 16.548 14.2648 15.8702 14.5676L16.5105 16.0008ZM17.7839 14.2703L19.8935 16.2795L20.976 15.1428L18.8664 13.1336L17.7839 14.2703ZM19.8396 15.1995C19.1002 16.0596 18.1956 16.7168 17.1155 17.1732L17.7265 18.6191C19.0239 18.0709 20.1285 17.2714 21.0299 16.2228L19.8396 15.1995ZM17.1155 17.1732C16.0351 17.6297 14.818 17.8647 13.4528 17.8647V19.4344C15.001 19.4344 16.4293 19.1672 17.7265 18.6191L17.1155 17.1732ZM27.6406 17.9715L27.9266 17.2406L27.6406 17.9715ZM24.6268 16.0879L24.083 16.6539L24.0889 16.6594L24.6268 16.0879ZM22.6427 13.2248L21.9202 13.5313L21.9219 13.5353L22.6427 13.2248ZM22.6427 6.01682L23.3635 6.32732L23.3652 6.32334L22.6427 6.01682ZM24.6268 3.15373L25.1647 3.72528L25.1705 3.71968L24.6268 3.15373ZM27.6406 1.245L27.9266 1.97587L27.6406 1.245ZM35.175 1.245L34.8854 1.97445L34.889 1.97587L35.175 1.245ZM38.1888 3.15373L37.645 3.71971L37.6509 3.72524L38.1888 3.15373ZM40.1729 6.01682L39.4504 6.32334L39.4521 6.32732L40.1729 6.01682ZM40.1729 13.2248L39.4504 12.9183L40.1729 13.2248ZM38.1888 16.0879L37.6509 15.5164L38.1888 16.0879ZM35.175 17.9715L34.889 17.2406L34.8854 17.242L35.175 17.9715ZM33.8691 15.3344L34.1605 16.0631L33.8691 15.3344ZM35.828 14.0536L36.383 14.6086L36.3912 14.6002L35.828 14.0536ZM37.1089 12.0946L36.3858 11.7893L36.3825 11.7974L37.1089 12.0946ZM37.1089 7.14699L36.3802 7.43847L36.3841 7.44835L36.3883 7.45813L37.1089 7.14699ZM35.828 5.18803L35.2648 5.73471L35.273 5.74299L35.828 5.18803ZM33.8691 3.88206L34.1605 3.15335L33.8691 3.88206ZM28.9465 3.88206L28.6551 3.15333L28.6494 3.15565L28.9465 3.88206ZM26.9876 5.18803L26.4326 4.63306L26.9876 5.18803ZM25.6816 7.14699L24.9585 6.84169L24.9552 6.84982L25.6816 7.14699ZM25.6816 12.0695L24.9529 12.361L24.9557 12.3679L24.9586 12.3748L25.6816 12.0695ZM26.9876 14.0536L26.4243 14.6003L26.4326 14.6085L26.9876 14.0536ZM28.9465 15.3344L29.238 14.6057L28.9465 15.3344ZM31.4329 17.8647C30.1474 17.8647 28.9815 17.6534 27.9266 17.2406L27.3546 18.7024C28.6102 19.1937 29.9725 19.4344 31.4329 19.4344V17.8647ZM27.9266 17.2406C26.8592 16.8229 25.9414 16.2474 25.1647 15.5164L24.0889 16.6594C25.02 17.5357 26.1114 18.2159 27.3546 18.7024L27.9266 17.2406ZM25.1705 15.5219C24.3921 14.774 23.791 13.9066 23.3635 12.9143L21.9219 13.5353C22.4321 14.7196 23.1536 15.7609 24.083 16.6538L25.1705 15.5219ZM23.3652 12.9183C22.941 11.9184 22.7243 10.8182 22.7243 9.60824H21.1547C21.1547 11.0102 21.4068 12.321 21.9202 13.5313L23.3652 12.9183ZM22.7243 9.60824C22.7243 8.39809 22.9411 7.30797 23.3635 6.32732L21.9219 5.70632C21.4067 6.90228 21.1547 8.20645 21.1547 9.60824H22.7243ZM23.3652 6.32334C23.7926 5.31602 24.3919 4.45255 25.1647 3.72524L24.0889 2.58221C23.1538 3.46225 22.4305 4.50751 21.9202 5.7103L23.3652 6.32334ZM25.1705 3.71968C25.9467 2.97399 26.8625 2.39223 27.9266 1.97587L27.3546 0.514122C26.108 1.0019 25.0147 1.69262 24.083 2.58777L25.1705 3.71968ZM27.9266 1.97587C28.9826 1.56265 30.1403 1.35174 31.4078 1.35174V-0.217942C29.9629 -0.217942 28.6091 0.0232061 27.3546 0.514122L27.9266 1.97587ZM31.4078 1.35174C32.6935 1.35174 33.8495 1.56313 34.8854 1.97444L35.4647 0.515555C34.2235 0.0227283 32.868 -0.217942 31.4078 -0.217942V1.35174ZM34.889 1.97587C35.9531 2.39223 36.8689 2.97399 37.6451 3.71968L38.7326 2.58777C37.8009 1.69262 36.7076 1.0019 35.461 0.514122L34.889 1.97587ZM37.6509 3.72524C38.4237 4.45255 39.023 5.31602 39.4504 6.32334L40.8954 5.7103C40.3851 4.50751 39.6618 3.46225 38.7267 2.58221L37.6509 3.72524ZM39.4521 6.32732C39.8745 7.30797 40.0913 8.39809 40.0913 9.60824H41.6609C41.6609 8.20645 41.4089 6.90228 40.8937 5.70632L39.4521 6.32732ZM40.0913 9.60824C40.0913 10.8182 39.8745 11.9184 39.4504 12.9183L40.8954 13.5313C41.4088 12.321 41.6609 11.0102 41.6609 9.60824H40.0913ZM39.4504 12.9183C39.023 13.9256 38.4237 14.789 37.6509 15.5164L38.7267 16.6594C39.6618 15.7793 40.3851 14.7341 40.8954 13.5313L39.4504 12.9183ZM37.6509 15.5164C36.8742 16.2474 35.9564 16.8229 34.889 17.2406L35.461 18.7024C36.7042 18.2159 37.7956 17.5357 38.7267 16.6594L37.6509 15.5164ZM34.8854 17.242C33.8484 17.6538 32.7006 17.8647 31.4329 17.8647V19.4344C32.8777 19.4344 34.2246 19.1933 35.4647 18.7009L34.8854 17.242ZM31.4078 16.5713C32.3857 16.5713 33.3061 16.4049 34.1605 16.0631L33.5776 14.6057C32.9252 14.8667 32.2047 15.0017 31.4078 15.0017V16.5713ZM34.1605 16.0631C35.0088 15.7238 35.7524 15.2391 36.383 14.6085L35.273 13.4986C34.7986 13.9731 34.2362 14.3423 33.5776 14.6057L34.1605 16.0631ZM36.3912 14.6002C37.0138 13.9587 37.4961 13.221 37.8353 12.3918L36.3825 11.7974C36.1189 12.4416 35.7473 13.0099 35.2648 13.5069L36.3912 14.6002ZM37.8319 12.3999C38.1949 11.5401 38.3709 10.6061 38.3709 9.60824H36.8012C36.8012 10.4186 36.6591 11.1422 36.3858 11.7893L37.8319 12.3999ZM38.3709 9.60824C38.3709 8.61064 38.195 7.68251 37.8294 6.83585L36.3883 7.45813C36.659 8.08486 36.8012 8.79757 36.8012 9.60824H38.3709ZM37.8376 6.8555C37.4983 6.00726 37.0136 5.26365 36.383 4.63306L35.273 5.74299C35.7475 6.21746 36.1167 6.77983 36.3802 7.43847L37.8376 6.8555ZM36.3912 4.64141C35.7601 3.99119 35.0139 3.49471 34.1605 3.15335L33.5776 4.61076C34.2311 4.87216 34.7909 5.24632 35.2648 5.73465L36.3912 4.64141ZM34.1605 3.15335C33.3061 2.81156 32.3857 2.64515 31.4078 2.64515V4.21483C32.2047 4.21483 32.9252 4.34979 33.5776 4.61076L34.1605 3.15335ZM31.4078 2.64515C30.4299 2.64515 29.5095 2.81156 28.6551 3.15335L29.238 4.61076C29.8904 4.34979 30.6109 4.21483 31.4078 4.21483V2.64515ZM28.6494 3.15565C27.8151 3.49695 27.0747 3.99096 26.4326 4.63306L27.5425 5.74299C28.039 5.24656 28.6046 4.86992 29.2437 4.60846L28.6494 3.15565ZM26.4326 4.63306C25.8052 5.26052 25.3142 5.99939 24.9586 6.84171L26.4046 7.45227C26.6852 6.78769 27.0649 6.22059 27.5425 5.74299L26.4326 4.63306ZM24.9552 6.84982C24.6103 7.6928 24.4447 8.61596 24.4447 9.60824H26.0144C26.0144 8.79225 26.1501 8.07458 26.408 7.44415L24.9552 6.84982ZM24.4447 9.60824C24.4447 10.5861 24.6111 11.5065 24.9529 12.361L26.4103 11.778C26.1493 11.1256 26.0144 10.4052 26.0144 9.60824H24.4447ZM24.9586 12.3748C25.3134 13.2151 25.802 13.9589 26.4244 14.6002L27.5508 13.5069C27.0681 13.0097 26.6861 12.4308 26.4046 11.7642L24.9586 12.3748ZM26.4326 14.6085C27.0632 15.2391 27.8068 15.7238 28.6551 16.0631L29.238 14.6057C28.5794 14.3423 28.017 13.9731 27.5425 13.4986L26.4326 14.6085ZM28.6551 16.0631C29.5095 16.4049 30.4299 16.5713 31.4078 16.5713V15.0017C30.6109 15.0017 29.8904 14.8667 29.238 14.6057L28.6551 16.0631ZM44.3368 18.3984H43.552V19.1833H44.3368V18.3984ZM44.3368 0.818045V0.0332057H43.552V0.818045H44.3368ZM47.6018 0.818045H48.3866V0.0332057H47.6018V0.818045ZM47.6018 15.6358H46.8169V16.4206H47.6018V15.6358ZM56.7938 15.6358H57.5786V14.851H56.7938V15.6358ZM56.7938 18.3984V19.1833H57.5786V18.3984H56.7938ZM45.1217 18.3984V0.818045H43.552V18.3984H45.1217ZM44.3368 1.60288H47.6018V0.0332057H44.3368V1.60288ZM46.8169 0.818045V15.6358H48.3866V0.818045H46.8169ZM47.6018 16.4206H56.7938V14.851H47.6018V16.4206ZM56.009 15.6358V18.3984H57.5786V15.6358H56.009ZM56.7938 17.6136H44.3368V19.1833H56.7938V17.6136ZM59.3714 18.3984H58.5866V19.1833H59.3714V18.3984ZM59.3714 0.818045V0.0332057H58.5866V0.818045H59.3714ZM62.6363 0.818045H63.4212V0.0332057H62.6363V0.818045ZM62.6363 15.6358H61.8515V16.4206H62.6363V15.6358ZM71.8284 15.6358H72.6132V14.851H71.8284V15.6358ZM71.8284 18.3984V19.1833H72.6132V18.3984H71.8284ZM60.1562 18.3984V0.818045H58.5866V18.3984H60.1562ZM59.3714 1.60288H62.6363V0.0332057H59.3714V1.60288ZM61.8515 0.818045V15.6358H63.4212V0.818045H61.8515ZM62.6363 16.4206H71.8284V14.851H62.6363V16.4206ZM71.0435 15.6358V18.3984H72.6132V15.6358H71.0435ZM71.8284 17.6136H59.3714V19.1833H71.8284V17.6136ZM77.4198 8.12647V7.34163H76.6349V8.12647H77.4198ZM86.1597 8.12647H86.9446V7.34163H86.1597V8.12647ZM86.1597 10.8138V11.5986H86.9446V10.8138H86.1597ZM77.4198 10.8138H76.6349V11.5986H77.4198V10.8138ZM77.6709 15.6609H76.8861V16.4458H77.6709V15.6609ZM87.5913 15.6609H88.3761V14.8761H87.5913V15.6609ZM87.5913 18.3984V19.1833H88.3761V18.3984H87.5913ZM74.406 18.3984H73.6211V19.1833H74.406V18.3984ZM74.406 0.818045V0.0332057H73.6211V0.818045H74.406ZM87.2397 0.818045H88.0245V0.0332057H87.2397V0.818045ZM87.2397 3.55556V4.3404H88.0245V3.55556H87.2397ZM77.6709 3.55556V2.77072H76.8861V3.55556H77.6709ZM77.4198 8.9113H86.1597V7.34163H77.4198V8.9113ZM85.3749 8.12647V10.8138H86.9446V8.12647H85.3749ZM86.1597 10.0289H77.4198V11.5986H86.1597V10.0289ZM78.2046 10.8138V8.12647H76.6349V10.8138H78.2046ZM77.6709 16.4458H87.5913V14.8761H77.6709V16.4458ZM86.8064 15.6609V18.3984H88.3761V15.6609H86.8064ZM87.5913 17.6136H74.406V19.1833H87.5913V17.6136ZM75.1908 18.3984V0.818045H73.6211V18.3984H75.1908ZM74.406 1.60288H87.2397V0.0332057H74.406V1.60288ZM86.4548 0.818045V3.55556H88.0245V0.818045H86.4548ZM87.2397 2.77072H77.6709V4.3404H87.2397V2.77072ZM76.8861 3.55556V15.6609H78.4557V3.55556H76.8861ZM95.6512 17.9966L95.3615 18.7262L95.3744 18.731L95.6512 17.9966ZM92.6625 16.113L92.1187 16.679L92.1246 16.6845L92.6625 16.113ZM90.6784 13.2248L91.4009 12.9183L90.6784 13.2248ZM90.6784 5.9917L91.4009 6.29822L90.6784 5.9917ZM92.6625 3.12861L93.2004 3.70013L93.2008 3.69981L92.6625 3.12861ZM95.7014 1.245L95.9782 1.97949L95.9874 1.97587L95.7014 1.245ZM103.512 1.29523L103.215 2.0218L103.219 2.02323L103.512 1.29523ZM106.551 3.42999L107.099 3.99176L107.631 3.47263L107.142 2.91317L106.551 3.42999ZM104.492 5.43918L103.937 5.99414L104.485 6.5423L105.04 6.00095L104.492 5.43918ZM102.256 3.93229L101.949 4.65446L101.958 4.65836L101.968 4.66203L102.256 3.93229ZM97.0827 3.88206L97.3634 4.61498V4.61498L97.0827 3.88206ZM93.7173 7.12187L92.9943 6.81659L92.9914 6.82346L92.9886 6.83039L93.7173 7.12187ZM93.7173 12.0695L92.9886 12.361L92.9914 12.3679L92.9943 12.3748L93.7173 12.0695ZM95.0484 14.0536L94.4934 14.6086L94.5018 14.6168L95.0484 14.0536ZM97.0576 15.3344L97.3436 14.6035L97.0576 15.3344ZM102.131 15.3847L102.379 16.1293L102.388 16.1261L102.131 15.3847ZM104.466 13.9782L105.09 13.5022L104.578 12.8305L103.946 13.3909L104.466 13.9782ZM106.325 16.4144L106.815 17.0272L107.414 16.5481L106.949 15.9383L106.325 16.4144ZM103.11 18.0971L103.34 18.8477L103.346 18.8456L103.11 18.0971ZM103.236 15.9874H102.451V16.6712L103.128 16.7649L103.236 15.9874ZM103.236 9.40732V8.62248H102.451V9.40732H103.236ZM106.325 9.40732H107.11V8.62248H106.325V9.40732ZM106.325 16.4144L106.218 17.1918L107.11 17.3151V16.4144H106.325ZM99.4435 17.8647C98.1546 17.8647 96.9854 17.6606 95.9279 17.2622L95.3744 18.731C96.6275 19.2032 97.9866 19.4344 99.4435 19.4344V17.8647ZM95.9408 17.2672C94.8901 16.85 93.9791 16.2743 93.2004 15.5415L92.1246 16.6845C93.0538 17.559 94.1352 18.2391 95.3615 18.726L95.9408 17.2672ZM93.2063 15.547C92.4299 14.8012 91.8289 13.927 91.4009 12.9183L89.9559 13.5313C90.4656 14.7326 91.1873 15.784 92.1188 16.6789L93.2063 15.547ZM91.4009 12.9183C90.9768 11.9184 90.7601 10.8182 90.7601 9.60824H89.1904C89.1904 11.0102 89.4425 12.321 89.9559 13.5313L91.4009 12.9183ZM90.7601 9.60824C90.7601 8.39825 90.9768 7.29808 91.4009 6.29822L89.9559 5.68518C89.4425 6.89544 89.1904 8.20629 89.1904 9.60824H90.7601ZM91.4009 6.29822C91.8283 5.29091 92.4277 4.42743 93.2004 3.70013L92.1246 2.55709C91.1896 3.43714 90.4662 4.48239 89.9559 5.68518L91.4009 6.29822ZM93.2008 3.69981C93.9935 2.95284 94.9168 2.37936 95.9781 1.97943L95.4247 0.510568C94.1755 0.981285 93.0729 1.66354 92.1243 2.55741L93.2008 3.69981ZM95.9874 1.97587C97.0423 1.56308 98.2082 1.35174 99.4938 1.35174V-0.217942C98.0334 -0.217942 96.6711 0.0227793 95.4154 0.514122L95.9874 1.97587ZM99.4938 1.35174C100.898 1.35174 102.135 1.58038 103.215 2.02179L103.809 0.568658C102.512 0.0389637 101.07 -0.217942 99.4938 -0.217942V1.35174ZM103.219 2.02323C104.315 2.46478 105.225 3.10601 105.96 3.94681L107.142 2.91317C106.237 1.87873 105.12 1.09679 103.805 0.567221L103.219 2.02323ZM106.003 2.86822L103.944 4.8774L105.04 6.00095L107.099 3.99176L106.003 2.86822ZM105.047 4.88421C104.294 4.13125 103.46 3.56472 102.545 3.20254L101.968 4.66203C102.66 4.9361 103.317 5.37415 103.937 5.99414L105.047 4.88421ZM102.564 3.21011C101.669 2.82935 100.692 2.64515 99.6444 2.64515V4.21483C100.505 4.21483 101.27 4.36549 101.949 4.65446L102.564 3.21011ZM99.6444 2.64515C98.6365 2.64515 97.6865 2.81038 96.802 3.14913L97.3634 4.61498C98.0528 4.35097 98.8106 4.21483 99.6444 4.21483V2.64515ZM96.802 3.14913C95.9221 3.48611 95.152 3.96867 94.5018 4.59973L95.595 5.7261C96.0834 5.2521 96.6694 4.88076 97.3634 4.61498L96.802 3.14913ZM94.5018 4.59973C93.8547 5.22781 93.3521 5.96929 92.9943 6.81659L94.4404 7.42715C94.7189 6.76756 95.1036 6.20307 95.595 5.7261L94.5018 4.59973ZM92.9886 6.83039C92.6462 7.68655 92.4804 8.61564 92.4804 9.60824H94.0501C94.0501 8.79257 94.1858 8.06408 94.446 7.41335L92.9886 6.83039ZM92.4804 9.60824C92.4804 10.5861 92.6468 11.5065 92.9886 12.361L94.446 11.778C94.1851 11.1256 94.0501 10.4052 94.0501 9.60824H92.4804ZM92.9943 12.3748C93.3512 13.22 93.8514 13.9665 94.4935 14.6085L95.6034 13.4986C95.1069 13.0021 94.7197 12.4259 94.4404 11.7642L92.9943 12.3748ZM94.5018 14.6168C95.1491 15.245 95.9085 15.7276 96.7716 16.0653L97.3436 14.6035C96.6664 14.3385 96.0863 13.9672 95.595 13.4904L94.5018 14.6168ZM96.7716 16.0653C97.6443 16.4068 98.5968 16.5713 99.6193 16.5713V15.0017C98.7666 15.0017 98.0113 14.8648 97.3436 14.6035L96.7716 16.0653ZM99.6193 16.5713C100.572 16.5713 101.493 16.4245 102.379 16.1292L101.883 14.6401C101.161 14.8806 100.408 15.0017 99.6193 15.0017V16.5713ZM102.388 16.1261C103.318 15.8036 104.184 15.2776 104.987 14.5656L103.946 13.3909C103.276 13.9848 102.585 14.3964 101.874 14.6432L102.388 16.1261ZM103.842 14.4543L105.701 16.8904L106.949 15.9383L105.09 13.5022L103.842 14.4543ZM105.835 15.8015C104.996 16.4726 104.012 16.99 102.874 17.3485L103.346 18.8456C104.653 18.4339 105.812 17.8295 106.815 17.0272L105.835 15.8015ZM102.881 17.3465C101.748 17.6925 100.603 17.8647 99.4435 17.8647V19.4344C100.762 19.4344 102.061 19.2383 103.34 18.8476L102.881 17.3465ZM104.021 15.9874V9.40732H102.451V15.9874H104.021ZM103.236 10.1922H106.325V8.62248H103.236V10.1922ZM105.54 9.40732V16.4144H107.11V9.40732H105.54ZM106.432 15.6369L103.343 15.21L103.128 16.7649L106.218 17.1918L106.432 15.6369ZM113.645 8.12647V7.34163H112.86V8.12647H113.645ZM122.385 8.12647H123.17V7.34163H122.385V8.12647ZM122.385 10.8138V11.5986H123.17V10.8138H122.385ZM113.645 10.8138H112.86V11.5986H113.645V10.8138ZM113.896 15.6609H113.111V16.4458H113.896V15.6609ZM123.816 15.6609H124.601V14.8761H123.816V15.6609ZM123.816 18.3984V19.1833H124.601V18.3984H123.816ZM110.631 18.3984H109.846V19.1833H110.631V18.3984ZM110.631 0.818045V0.0332057H109.846V0.818045H110.631ZM123.465 0.818045H124.25V0.0332057H123.465V0.818045ZM123.465 3.55556V4.3404H124.25V3.55556H123.465ZM113.896 3.55556V2.77072H113.111V3.55556H113.896ZM113.645 8.9113H122.385V7.34163H113.645V8.9113ZM121.6 8.12647V10.8138H123.17V8.12647H121.6ZM122.385 10.0289H113.645V11.5986H122.385V10.0289ZM114.43 10.8138V8.12647H112.86V10.8138H114.43ZM113.896 16.4458H123.816V14.8761H113.896V16.4458ZM123.032 15.6609V18.3984H124.601V15.6609H123.032ZM123.816 17.6136H110.631V19.1833H123.816V17.6136ZM111.416 18.3984V0.818045H109.846V18.3984H111.416ZM110.631 1.60288H123.465V0.0332057H110.631V1.60288ZM122.68 0.818045V3.55556H124.25V0.818045H122.68ZM123.465 2.77072H113.896V4.3404H123.465V2.77072ZM113.111 3.55556V15.6609H114.681V3.55556H113.111Z" fill="black" mask="url(#path-1-outside-1_7_228)"/>
</g>
<defs>
<filter id="filter0_d_7_228" x="0.920581" y="0.570312" width="126.035" height="24.3568" filterUnits="userSpaceOnUse" color-interpolation-filters="sRGB">
<feFlood flood-opacity="0" result="BackgroundImageFix"/>
<feColorMatrix in="SourceAlpha" type="matrix" values="0 0 0 0 0 0 0 0 0 0 0 0 0 0 0 0 0 0 127 0" result="hardAlpha"/>
<feOffset dy="3.13936"/>
<feGaussianBlur stdDeviation="1.56968"/>
<feComposite in2="hardAlpha" operator="out"/>
<feColorMatrix type="matrix" values="0 0 0 0 0 0 0 0 0 0 0 0 0 0 0 0 0 0 0.25 0"/>
<feBlend mode="normal" in2="BackgroundImageFix" result="effect1_dropShadow_7_228"/>
<feBlend mode="normal" in="SourceGraphic" in2="effect1_dropShadow_7_228" result="shape"/>
</filter>
</defs>
</svg>
